<svg xmlns="http://www.w3.org/2000/svg" xmlns:xlink="http://www.w3.org/1999/xlink" width="2519.939" height="2520.034" viewBox="0 0 2519.939 2520.034">
  <defs>
    <style>
      .cls-1 {
        fill: #fff6e5;
      }

      .cls-2, .cls-4 {
        fill: #fee7bb;
      }

      .cls-3 {
        filter: url(#filter);
      }

      .cls-4 {
        fill-rule: evenodd;
      }
    </style>
    <filter id="filter" filterUnits="userSpaceOnUse">
      <feFlood result="flood" flood-color="#09456a"/>
      <feComposite result="composite" operator="in" in2="SourceGraphic"/>
      <feBlend result="blend" in2="SourceGraphic"/>
    </filter>
  </defs>
  <g id="Moons">
    <ellipse id="Moon_WIDE" class="cls-1" cx="1259.969" cy="1260.017" rx="1259.969" ry="1260.017"/>
    <circle id="Moon_SMALL" class="cls-2" cx="1152.155" cy="1367.814" r="1152.155"/>
  </g>
  <g id="MoonInfos_No3e" class="cls-3">
    <path id="MoonAlps_SHAPE-SQRD" class="cls-4" d="M987.372,1071.38L867.9,888.971v1.573L438.743,1543.12H346v-3.15L812.88,835.507H926.064l106.9,163.536h1.57L1143,835.507h113.18l361.56,550.363s-19.02,19.39-28.29,28.3c-8.28,7.97-26.73,22.02-26.73,22.02l-3.14-1.57-358.42-542.5h-3.14L946.5,1274.22H853.752m264.218,515.75H806.714L646.37,2109.18H558.338v-1.57L918.326,1400H1026.79l182.36,356.95v172.97l-235.8-463.87-1.572,3.14L847.586,1711.35H1080.24Zm108.47-155.65h78.6v331.79c0,48.82-9.28,109.98,22.28,138.74,24.47,22.29,49.89,27.5,92.03,27.92,28.15,0.27,59.42.16,93.19,0.02v77.05c-41.37.36-77.25-.93-108.86-0.93-64.6,0-112.08-24.41-143.97-66.33-42.45-55.81-33.27-110.14-33.27-189.05V1634.32Zm191.78,0s177.94,0.46,247.11.46c68.76,0,90.87,13.69,90.87,13.69s-21.36,14.94-35.85,30.33c-12.16,12.91-23.88,34.14-23.88,34.14h-91.18v169.83c28.2,0.07,56.23.4,80.47,0.4,35.83,0,64.25-12.41,81.45-36.57a105.112,105.112,0,0,0,14.14-29.88c1.05-12.57,2.1-22.01,3.15-34.59,7.8-24.93,32.76-47.86,61.31-51.89,5.69,14.64,12.55,34.86,14.46,52.32,4.69,42.91-10.15,72.43-23.89,97.06-24.74,44.31-64.52,67.53-121.05,80.2H1605.29v250.02h-77.03v-496.9H1418.22v-78.62Zm663.39,1.57v77.05H1910.26c-41.75,0-74.33-3.25-103.75,14.15-18.91,11.19-33.04,34.27-39.3,58.19v28.3c-9.98,26.72-32.64,46.15-61.01,52.3-10.04-21.17-16.02-51.48-16.02-64.88-0.01-38.15,7.91-60.57,22.01-83.34,21.54-34.8,50.67-60.08,92.75-73.91,29.33-9.64,68.34-7.86,106.89-7.86h169.78Zm-468.58-603.82c-7.96,5.23-39.37,29.84-56.48,55.47-27.31-19.14-82.45-26.27-127.45-20.88-43.42-68.212-22.43-30.74-45.58-67.617C1496.07,974.866,1562.82,1000.85,1613.03,1032.07Zm388.28-44.034h81.75l304.97,462.3v-462.3h78.6v570.8H2364.44l-282.96-430.85h-1.57v430.85h-78.6v-91.2h-1.57v3.14c-17.38,14.5-29.96,27.12-47.16,39.31-61.08,43.3-159.61,59.25-234.23,37.74-19.83-5.71-56.92-19.05-75.45-34.59,16.51-12.55,44.11-35.62,56.59-56.61,18.54,7.79,32.1,15.79,59.73,20.44,29.58,4.99,67.55,2.89,91.18-4.72,66.78-21.49,108.87-59.21,135.19-121.07,17.47-41.07,22.32-98.07,6.29-143.1-6.96-19.56-18.25-41.92-29.87-58.18-22.47-31.46-59.49-60.55-99.03-73.91-127.4-43.03-239.14,43.08-267.24,132.09-17.92,64.87-6.29,103.78-6.29,103.78l-72.31-108.5s11.95-48.06,40.98-90.77c27.03-39.77,71.05-75.86,103.64-94.78,13.41-7.78,27.28-9.69,42.44-15.72,42.34-16.835,115.99-22.023,165.06-6.292a350.084,350.084,0,0,1,102.18,51.892c10.81,8,18.73,20.67,29.87,28.3V988.036Zm-715.26,62.894c4.81,8.12,38.01,55.93,42.45,62.9-15.74,13.28-17.36,12.95-31.44,31.45-26.04,34.22-53.92,101.45-39.3,168.26,18.14,82.93,72.64,137.63,154.05,160.39,117.34,32.79,218.79-50.77,246.81-132.09,12.16-35.32,15.51-91.07,3.14-128.94-5.97-18.3-25.15-51.89-25.15-51.89s26.62-36.85,59.73-53.47c2.05,7.23,6.52,8.9,9.44,14.16,44.65,80.42,57.93,176.51,17.29,262.6-40.57,85.91-89.44,132.79-190.21,163.53-35.88,10.95-92,14.29-136.77,1.58-115.7-32.87-179.33-99.95-212.22-212.29-5.15-17.6-6.28-41.8-6.29-62.9-0.01-87.34,29.14-134.93,66.03-183.97C1252.08,1078.99,1272.55,1058.95,1286.05,1050.93Zm336.53,1157.34v-77.05h253.1c76.58,0,128.45,7.2,158.77-47.18,16.65-29.86,11.98-59.13-4.72-83.34-11.85-17.17-20.27-26.64-42.12-34.2-27.9-9.67-68.72-5.51-103.76-6.29-9.95-.22-26.2,0-36.16,0-33.83-2.41-55.02-14.15-55.02-14.15s22.63-13.56,37.73-28.3c8.99-8.77,21.2-24.87,23.27-33.42h99.57c27.8,0,85.71,5.78,127.13,55.43,37.13,44.5,40.54,78.44,40.54,101.82,0,45.89-10.22,67.01-28.3,92.77-24.33,34.68-55.63,58.43-102.18,70.76-33.9,8.99-83.4,3.15-122.62,3.15H1622.58Z" transform="translate(-213.031 -246.906)"/>
  </g>
</svg>
